<svg xmlns="http://www.w3.org/2000/svg" xmlns:xlink="http://www.w3.org/1999/xlink" width="500" zoomAndPan="magnify" viewBox="0 0 375 374.999991" height="500" preserveAspectRatio="xMidYMid meet" version="1.0"><defs><g/><clipPath id="131a05da92"><path d="M 129.964844 70.078125 L 244.667969 70.078125 L 244.667969 201.808594 L 129.964844 201.808594 Z M 129.964844 70.078125 " clip-rule="nonzero"/></clipPath></defs><g fill="#000000" fill-opacity="1"><g transform="translate(72.642686, 263.76391)"><g><path d="M 34.121094 -25.996094 C 34.121094 -29.574219 31.199219 -32.496094 27.621094 -32.496094 L 1.625 -32.496094 L 1.625 0 L 8.125 0 L 8.125 -13 L 11.941406 -13 L 23.96875 -0.976562 C 24.617188 -0.324219 25.429688 0 26.324219 0 L 34.121094 0 L 34.121094 -6.5 L 27.621094 -6.5 L 21.125 -13 L 27.621094 -13 C 31.199219 -13 34.121094 -15.921875 34.121094 -19.5 Z M 27.621094 -25.996094 L 27.621094 -19.5 L 8.125 -19.5 L 8.125 -25.996094 Z M 27.621094 -25.996094 "/></g></g></g><g fill="#000000" fill-opacity="1"><g transform="translate(111.435294, 263.76391)"><g><path d="M 8.125 -32.496094 C 4.550781 -32.496094 1.625 -29.574219 1.625 -25.996094 L 1.625 0 L 8.125 0 L 8.125 -13 L 27.621094 -13 L 27.621094 0 L 34.121094 0 L 34.121094 -25.996094 C 34.121094 -29.574219 31.199219 -32.496094 27.621094 -32.496094 Z M 8.125 -25.996094 L 27.621094 -25.996094 L 27.621094 -19.5 L 8.125 -19.5 Z M 8.125 -25.996094 "/></g></g></g><g fill="#000000" fill-opacity="1"><g transform="translate(150.227902, 263.76391)"><g><path d="M 27.621094 0 C 31.199219 0 34.121094 -2.925781 34.121094 -6.5 L 34.121094 -25.996094 C 34.121094 -29.574219 31.199219 -32.496094 27.621094 -32.496094 L 1.625 -32.496094 L 1.625 0 Z M 8.125 -25.996094 L 27.621094 -25.996094 L 27.621094 -6.5 L 8.125 -6.5 Z M 8.125 -25.996094 "/></g></g></g><g fill="#000000" fill-opacity="1"><g transform="translate(189.020514, 263.76391)"><g><path d="M 34.121094 -32.496094 L 1.625 -32.496094 L 1.625 -25.996094 L 14.625 -25.996094 L 14.625 0 L 21.125 0 L 21.125 -25.996094 L 34.121094 -25.996094 Z M 34.121094 -32.496094 "/></g></g></g><g fill="#000000" fill-opacity="1"><g transform="translate(227.813119, 263.76391)"><g><path d="M 34.121094 -32.496094 L 8.125 -32.496094 C 4.550781 -32.496094 1.625 -29.574219 1.625 -25.996094 L 1.625 -6.5 C 1.625 -2.925781 4.550781 0 8.125 0 L 34.121094 0 L 34.121094 -6.5 L 8.125 -6.5 L 8.125 -13 L 34.121094 -13 L 34.121094 -19.5 L 8.125 -19.5 L 8.125 -25.996094 L 34.121094 -25.996094 Z M 34.121094 -32.496094 "/></g></g></g><g fill="#000000" fill-opacity="1"><g transform="translate(266.605724, 263.76391)"><g><path d="M 34.121094 -32.496094 L 26.324219 -32.496094 C 25.429688 -32.496094 24.617188 -32.171875 23.96875 -31.523438 L 11.941406 -19.5 L 8.125 -19.5 L 8.125 -32.496094 L 1.625 -32.496094 L 1.625 0 L 8.125 0 L 8.125 -13 L 11.941406 -13 L 23.96875 -0.976562 C 24.617188 -0.324219 25.429688 0 26.324219 0 L 34.121094 0 L 34.121094 -6.5 L 27.621094 -6.5 L 17.875 -16.25 L 27.621094 -25.996094 L 34.121094 -25.996094 Z M 34.121094 -32.496094 "/></g></g></g><path fill="#737373" d="M 224.496094 114.320312 C 224.265625 113.890625 223.960938 113.464844 223.324219 113.140625 L 214.242188 107.859375 C 214.117188 107.789062 213.980469 107.734375 213.835938 107.699219 C 213.792969 107.6875 213.746094 107.6875 213.699219 107.679688 C 213.605469 107.664062 213.511719 107.644531 213.417969 107.648438 L 213.398438 107.644531 L 213.398438 107.648438 C 213.128906 107.65625 212.863281 107.726562 212.632812 107.863281 L 192.195312 119.738281 L 192.179688 119.703125 L 190.527344 120.664062 C 188.539062 121.820312 186.09375 121.820312 184.105469 120.664062 L 175.167969 115.472656 C 174.675781 115.183594 174.367188 114.648438 174.367188 114.074219 C 174.367188 113.496094 174.675781 112.960938 175.167969 112.671875 L 184.105469 107.484375 C 186.09375 106.328125 188.539062 106.328125 190.527344 107.484375 L 192.679688 108.734375 C 193.175781 109.023438 193.785156 109.023438 194.285156 108.734375 L 202.605469 103.898438 C 203.101562 103.609375 203.40625 103.078125 203.40625 102.5 C 203.40625 101.921875 203.101562 101.390625 202.605469 101.101562 L 190.527344 94.082031 C 188.539062 92.925781 186.09375 92.925781 184.105469 94.082031 L 154.519531 111.273438 C 152.378906 112.519531 152.378906 115.625 154.519531 116.871094 L 184.105469 134.0625 C 186.09375 135.21875 188.539062 135.21875 190.527344 134.0625 L 213.398438 120.773438 L 213.398438 151.046875 L 206.050781 155.332031 L 190.527344 164.378906 C 190.035156 164.660156 189.511719 164.878906 188.964844 165.027344 C 187.324219 165.464844 185.578125 165.230469 184.105469 164.378906 L 162.839844 152.019531 C 161.84375 151.441406 161.230469 150.375 161.234375 149.21875 L 161.234375 131.574219 C 161.234375 130.996094 160.925781 130.460938 160.429688 130.175781 L 152.113281 125.335938 C 151.613281 125.046875 151.003906 125.046875 150.503906 125.335938 C 150.007812 125.625 149.703125 126.160156 149.703125 126.738281 L 149.703125 155.921875 C 149.703125 157.074219 150.316406 158.140625 151.308594 158.722656 L 184.105469 177.78125 C 185.066406 178.339844 186.160156 178.632812 187.273438 178.640625 L 187.292969 178.640625 C 187.449219 178.640625 187.609375 178.625 187.765625 178.613281 C 187.886719 178.605469 188.007812 178.605469 188.128906 178.59375 C 188.292969 178.570312 188.457031 178.527344 188.621094 178.496094 C 188.730469 178.46875 188.84375 178.457031 188.953125 178.429688 C 189.132812 178.382812 189.300781 178.316406 189.472656 178.253906 C 189.570312 178.21875 189.664062 178.195312 189.753906 178.160156 C 190.019531 178.050781 190.277344 177.925781 190.523438 177.78125 L 218.820312 161.335938 L 223.304688 158.777344 C 224.308594 158.203125 224.933594 157.128906 224.933594 155.964844 L 224.933594 115.9375 C 224.933594 115.359375 224.773438 114.804688 224.496094 114.320312 " fill-opacity="1" fill-rule="nonzero"/><g clip-path="url(#131a05da92)"><path fill="#ff0505" d="M 190.449219 84.414062 C 189.492188 83.859375 188.417969 83.566406 187.316406 83.554688 C 186.21875 83.566406 185.140625 83.859375 184.183594 84.414062 L 144.667969 107.378906 C 142.683594 108.53125 141.464844 110.660156 141.464844 112.960938 L 141.464844 158.894531 C 141.460938 161.199219 142.683594 163.328125 144.667969 164.476562 L 184.183594 187.441406 C 185.152344 188.003906 186.246094 188.304688 187.359375 188.308594 C 188.476562 188.304688 189.574219 188.003906 190.542969 187.445312 L 229.886719 164.582031 C 231.867188 163.429688 233.089844 161.304688 233.089844 159 L 233.089844 145.726562 C 233.085938 145.148438 233.394531 144.617188 233.886719 144.328125 L 242.265625 139.460938 C 242.761719 139.171875 243.375 139.171875 243.867188 139.460938 C 244.363281 139.75 244.667969 140.28125 244.667969 140.859375 L 244.667969 165.578125 C 244.664062 166.632812 244.40625 167.671875 243.910156 168.601562 C 243.785156 169.207031 243.128906 169.925781 242.195312 170.660156 C 242.179688 170.679688 242.152344 170.695312 242.128906 170.714844 C 239.761719 172.566406 235.847656 174.480469 235.152344 174.886719 L 190.542969 200.808594 C 189.542969 201.386719 188.40625 201.683594 187.253906 201.667969 L 187.203125 201.667969 L 187.203125 201.664062 C 186.140625 201.636719 185.101562 201.339844 184.183594 200.808594 L 133.167969 171.160156 C 131.183594 170.011719 129.964844 167.882812 129.964844 165.578125 L 129.964844 106.285156 C 129.964844 105.25 130.09375 104.195312 130.546875 103.300781 C 130.609375 103.070312 131.226562 101.929688 132.5 100.992188 C 132.980469 100.667969 133.828125 100.230469 134.625 99.769531 L 184.042969 71.050781 C 185.035156 70.476562 186.167969 70.179688 187.316406 70.191406 C 188.46875 70.179688 189.597656 70.476562 190.59375 71.050781 L 236.191406 97.546875 C 236.296875 97.609375 236.375 97.6875 236.464844 97.761719 L 237.042969 98.09375 C 238.59375 98.921875 241.023438 100.179688 242.339844 101.1875 L 242.445312 101.269531 C 242.464844 101.28125 242.484375 101.296875 242.5 101.308594 C 242.546875 101.347656 242.578125 101.386719 242.621094 101.425781 C 243.105469 101.832031 243.519531 102.3125 243.835938 102.847656 C 243.84375 102.855469 243.847656 102.863281 243.859375 102.871094 L 243.855469 102.875 C 244.386719 103.769531 244.667969 104.792969 244.667969 105.835938 L 244.667969 127.546875 C 244.667969 128.125 244.363281 128.65625 243.867188 128.945312 L 235.488281 133.816406 C 234.996094 134.101562 234.382812 134.101562 233.890625 133.816406 C 233.390625 133.527344 233.085938 132.996094 233.085938 132.417969 L 233.085938 112.839844 C 233.085938 110.53125 231.863281 108.402344 229.878906 107.25 Z M 190.449219 84.414062 " fill-opacity="1" fill-rule="nonzero"/></g></svg>